<!-- SVG Icons for Nostr Web Extension -->
<svg xmlns="http://www.w3.org/2000/svg" style="display: none;">
  
  <!-- Globe/Browser Icon -->
  <symbol id="icon-globe" viewBox="0 0 24 24">
    <path fill="none" stroke="currentColor" stroke-width="2" stroke-linecap="round" stroke-linejoin="round" 
          d="M12 2C6.48 2 2 6.48 2 12s4.48 10 10 10 10-4.48 10-10S17.52 2 12 2zm0 0v20M2 12h20M12 2c2.5 0 4.5 4.5 4.5 10s-2 10-4.5 10m0-20c-2.5 0-4.5 4.5-4.5 10s2 10 4.5 10"/>
  </symbol>
  
  <!-- Settings/Gear Icon -->
  <symbol id="icon-settings" viewBox="0 0 24 24">
    <circle cx="12" cy="12" r="3" fill="none" stroke="currentColor" stroke-width="2"/>
    <path fill="none" stroke="currentColor" stroke-width="2" stroke-linecap="round" stroke-linejoin="round"
          d="M12 2v2m0 16v2M4.22 4.22l1.42 1.42m12.72 12.72l1.42 1.42M2 12h2m16 0h2M4.22 19.78l1.42-1.42m12.72-12.72l1.42-1.42"/>
  </symbol>
  
  <!-- Arrow Left (Back) -->
  <symbol id="icon-arrow-left" viewBox="0 0 24 24">
    <path fill="none" stroke="currentColor" stroke-width="2" stroke-linecap="round" stroke-linejoin="round"
          d="M19 12H5m0 0l7 7m-7-7l7-7"/>
  </symbol>
  
  <!-- Arrow Right (Forward) -->
  <symbol id="icon-arrow-right" viewBox="0 0 24 24">
    <path fill="none" stroke="currentColor" stroke-width="2" stroke-linecap="round" stroke-linejoin="round"
          d="M5 12h14m0 0l-7-7m7 7l-7 7"/>
  </symbol>
  
  <!-- Reload/Refresh Icon -->
  <symbol id="icon-reload" viewBox="0 0 24 24">
    <path fill="none" stroke="currentColor" stroke-width="2" stroke-linecap="round" stroke-linejoin="round"
          d="M23 4v6h-6M1 20v-6h6"/>
    <path fill="none" stroke="currentColor" stroke-width="2" stroke-linecap="round" stroke-linejoin="round"
          d="M3.51 9a9 9 0 0 1 14.85-3.36L23 10M1 14l4.64 4.36A9 9 0 0 0 20.49 15"/>
  </symbol>
  
  <!-- Trash/Clear Icon -->
  <symbol id="icon-trash" viewBox="0 0 24 24">
    <path fill="none" stroke="currentColor" stroke-width="2" stroke-linecap="round" stroke-linejoin="round"
          d="M3 6h18M8 6V4a2 2 0 0 1 2-2h4a2 2 0 0 1 2 2v2m3 0v14a2 2 0 0 1-2 2H7a2 2 0 0 1-2-2V6h14zM10 11v6m4-6v6"/>
  </symbol>
  
  <!-- Shield/Privacy Icon -->
  <symbol id="icon-shield" viewBox="0 0 24 24">
    <path fill="none" stroke="currentColor" stroke-width="2" stroke-linecap="round" stroke-linejoin="round"
          d="M12 22s8-4 8-10V5l-8-3-8 3v7c0 6 8 10 8 10z"/>
  </symbol>
  
  <!-- Info Icon -->
  <symbol id="icon-info" viewBox="0 0 24 24">
    <circle cx="12" cy="12" r="10" fill="none" stroke="currentColor" stroke-width="2"/>
    <path fill="none" stroke="currentColor" stroke-width="2" stroke-linecap="round"
          d="M12 16v-4m0-4h.01"/>
  </symbol>
  
  <!-- Check Icon -->
  <symbol id="icon-check" viewBox="0 0 24 24">
    <path fill="none" stroke="currentColor" stroke-width="2" stroke-linecap="round" stroke-linejoin="round"
          d="M20 6L9 17l-5-5"/>
  </symbol>
  
  <!-- X/Close Icon -->
  <symbol id="icon-x" viewBox="0 0 24 24">
    <path fill="none" stroke="currentColor" stroke-width="2" stroke-linecap="round" stroke-linejoin="round"
          d="M18 6L6 18M6 6l12 12"/>
  </symbol>
  
  <!-- External Link Icon -->
  <symbol id="icon-external" viewBox="0 0 24 24">
    <path fill="none" stroke="currentColor" stroke-width="2" stroke-linecap="round" stroke-linejoin="round"
          d="M18 13v6a2 2 0 0 1-2 2H5a2 2 0 0 1-2-2V8a2 2 0 0 1 2-2h6m4-3h6m0 0v6m0-6L10 14"/>
  </symbol>
  
</svg>
